# xmcd
#
# Track frame offsets:
# 150
# 13981
# 27855
# 44365
# 56409
# 68627
# 84036
# 100413
# 115516
# 131765
#
# Disc length: 1956 seconds
#
#
# Revision: 0
# Processed by: cddbd v1.5.1PL2 Copyright (c) Steve Scherf et al.
# Submitted via: FreeRIP 2.944 
#
DISCID=7807a20a
DTITLE=Buffalo Shut-up'n play - Shut-up'n play
DYEAR=1977
DGENRE=Bluegrass
TTITLE0=Santa Fe railroad
TTITLE1=Can't take hold
TTITLE2=If I could
TTITLE3=Roadrunner
TTITLE4=Do the bump
TTITLE5=1000 miles
TTITLE6=One more day
TTITLE7=City lights
TTITLE8=You being you
TTITLE9=Mighty fine
EXTD=
EXTT0=
EXTT1=
EXTT2=
EXTT3=
EXTT4=
EXTT5=
EXTT6=
EXTT7=
EXTT8=
EXTT9=
PLAYORDER=
